<mxfile host="app.diagrams.net" modified="2024-02-25T19:59:15.727Z" agent="Mozilla/5.0 (X11; Ubuntu; Linux x86_64; rv:123.0) Gecko/20100101 Firefox/123.0" etag="2-rh8VNhj-M89TJBEUkY" version="23.1.6" type="github">
  <diagram id="C5RBs43oDa-KdzZeNtuy" name="Page-1">
    <mxGraphModel dx="953" dy="528" grid="1" gridSize="10" guides="1" tooltips="1" connect="1" arrows="1" fold="1" page="1" pageScale="1" pageWidth="827" pageHeight="1169" math="0" shadow="0">
      <root>
        <mxCell id="WIyWlLk6GJQsqaUBKTNV-0" />
        <mxCell id="WIyWlLk6GJQsqaUBKTNV-1" parent="WIyWlLk6GJQsqaUBKTNV-0" />
        <mxCell id="tw2AUYOSc2pJroIqfaaH-5" value="bridge" style="endArrow=none;html=1;rounded=0;entryX=0;entryY=1;entryDx=0;entryDy=0;exitX=0.75;exitY=1;exitDx=0;exitDy=0;" parent="WIyWlLk6GJQsqaUBKTNV-1" source="tw2AUYOSc2pJroIqfaaH-7" target="WIyWlLk6GJQsqaUBKTNV-12" edge="1">
          <mxGeometry width="50" height="50" relative="1" as="geometry">
            <mxPoint x="430" y="440" as="sourcePoint" />
            <mxPoint x="480" y="390" as="targetPoint" />
          </mxGeometry>
        </mxCell>
        <mxCell id="tw2AUYOSc2pJroIqfaaH-6" value="bridge" style="endArrow=none;html=1;rounded=0;entryX=1;entryY=1;entryDx=0;entryDy=0;exitX=0.25;exitY=1;exitDx=0;exitDy=0;" parent="WIyWlLk6GJQsqaUBKTNV-1" source="tw2AUYOSc2pJroIqfaaH-7" target="WIyWlLk6GJQsqaUBKTNV-11" edge="1">
          <mxGeometry width="50" height="50" relative="1" as="geometry">
            <mxPoint x="320" y="360" as="sourcePoint" />
            <mxPoint x="350" y="330" as="targetPoint" />
          </mxGeometry>
        </mxCell>
        <mxCell id="tw2AUYOSc2pJroIqfaaH-15" value="" style="group;movable=1;resizable=1;rotatable=1;deletable=1;editable=1;locked=0;connectable=1;" parent="WIyWlLk6GJQsqaUBKTNV-1" vertex="1" connectable="0">
          <mxGeometry x="310" y="390" width="120" height="70" as="geometry" />
        </mxCell>
        <mxCell id="WIyWlLk6GJQsqaUBKTNV-7" value="VM" style="rounded=1;whiteSpace=wrap;html=1;fontSize=12;glass=0;strokeWidth=1;shadow=0;" parent="tw2AUYOSc2pJroIqfaaH-15" vertex="1">
          <mxGeometry y="30" width="120" height="40" as="geometry" />
        </mxCell>
        <mxCell id="tw2AUYOSc2pJroIqfaaH-7" value="wifi 10.119.117.163&lt;br&gt;eth 192.168.0.102" style="text;html=1;align=center;verticalAlign=middle;whiteSpace=wrap;rounded=0;" parent="tw2AUYOSc2pJroIqfaaH-15" vertex="1">
          <mxGeometry width="120" height="30" as="geometry" />
        </mxCell>
        <mxCell id="tw2AUYOSc2pJroIqfaaH-16" value="" style="group" parent="WIyWlLk6GJQsqaUBKTNV-1" vertex="1" connectable="0">
          <mxGeometry x="30" y="310" width="120" height="70" as="geometry" />
        </mxCell>
        <mxCell id="tw2AUYOSc2pJroIqfaaH-12" value="Uniping" style="rounded=1;whiteSpace=wrap;html=1;fontSize=12;glass=0;strokeWidth=1;shadow=0;" parent="tw2AUYOSc2pJroIqfaaH-16" vertex="1">
          <mxGeometry y="30" width="120" height="40" as="geometry" />
        </mxCell>
        <mxCell id="tw2AUYOSc2pJroIqfaaH-13" value="eth 192.168.0.100" style="text;html=1;align=center;verticalAlign=middle;whiteSpace=wrap;rounded=0;" parent="tw2AUYOSc2pJroIqfaaH-16" vertex="1">
          <mxGeometry width="120" height="30" as="geometry" />
        </mxCell>
        <mxCell id="tw2AUYOSc2pJroIqfaaH-25" value="" style="group" parent="WIyWlLk6GJQsqaUBKTNV-1" vertex="1" connectable="0">
          <mxGeometry x="700" y="370" width="120" height="70" as="geometry" />
        </mxCell>
        <mxCell id="tw2AUYOSc2pJroIqfaaH-23" value="DevTerminal" style="rounded=1;whiteSpace=wrap;html=1;fontSize=12;glass=0;strokeWidth=1;shadow=0;" parent="tw2AUYOSc2pJroIqfaaH-25" vertex="1">
          <mxGeometry y="30" width="120" height="40" as="geometry" />
        </mxCell>
        <mxCell id="tw2AUYOSc2pJroIqfaaH-24" value="wifi 10.119.117.176" style="text;html=1;align=center;verticalAlign=middle;whiteSpace=wrap;rounded=0;" parent="tw2AUYOSc2pJroIqfaaH-25" vertex="1">
          <mxGeometry width="120" height="30" as="geometry" />
        </mxCell>
        <mxCell id="aIKH67vCFOzoPOkgElsJ-0" value="" style="endArrow=classic;html=1;rounded=0;entryX=0;entryY=0.5;entryDx=0;entryDy=0;exitX=1;exitY=0.5;exitDx=0;exitDy=0;" edge="1" parent="WIyWlLk6GJQsqaUBKTNV-1" source="tw2AUYOSc2pJroIqfaaH-12" target="WIyWlLk6GJQsqaUBKTNV-7">
          <mxGeometry width="50" height="50" relative="1" as="geometry">
            <mxPoint x="196" y="360" as="sourcePoint" />
            <mxPoint x="246" y="310" as="targetPoint" />
          </mxGeometry>
        </mxCell>
        <mxCell id="aIKH67vCFOzoPOkgElsJ-1" value="SSH Connection from Terminal to Zabbix VM" style="endArrow=classic;html=1;rounded=0;entryX=0.75;entryY=1;entryDx=0;entryDy=0;exitX=0;exitY=0;exitDx=0;exitDy=0;" edge="1" parent="WIyWlLk6GJQsqaUBKTNV-1" source="tw2AUYOSc2pJroIqfaaH-23" target="WIyWlLk6GJQsqaUBKTNV-12">
          <mxGeometry width="50" height="50" relative="1" as="geometry">
            <mxPoint x="296" y="370" as="sourcePoint" />
            <mxPoint x="346" y="320" as="targetPoint" />
          </mxGeometry>
        </mxCell>
        <mxCell id="aIKH67vCFOzoPOkgElsJ-6" value="" style="group" vertex="1" connectable="0" parent="WIyWlLk6GJQsqaUBKTNV-1">
          <mxGeometry x="450" y="50" width="320" height="180" as="geometry" />
        </mxCell>
        <mxCell id="aIKH67vCFOzoPOkgElsJ-7" value="" style="group" vertex="1" connectable="0" parent="aIKH67vCFOzoPOkgElsJ-6">
          <mxGeometry x="13.793103448275863" y="-10" width="320" height="180" as="geometry" />
        </mxCell>
        <mxCell id="WIyWlLk6GJQsqaUBKTNV-12" value="" style="rounded=1;whiteSpace=wrap;html=1;fontSize=12;glass=0;strokeWidth=1;shadow=0;" parent="aIKH67vCFOzoPOkgElsJ-7" vertex="1">
          <mxGeometry y="49.09090909090909" width="320" height="130.9090909090909" as="geometry" />
        </mxCell>
        <mxCell id="tw2AUYOSc2pJroIqfaaH-8" value="wifi 10.119.117.15&lt;br&gt;eth 192.168.0.110" style="text;html=1;align=center;verticalAlign=middle;whiteSpace=wrap;rounded=0;" parent="aIKH67vCFOzoPOkgElsJ-7" vertex="1">
          <mxGeometry x="13.333333333333321" width="293.33333333333337" height="49.09090909090909" as="geometry" />
        </mxCell>
        <mxCell id="aIKH67vCFOzoPOkgElsJ-2" value="Zabbix VM" style="swimlane;fontStyle=0;childLayout=stackLayout;horizontal=1;startSize=30;horizontalStack=0;resizeParent=1;resizeParentMax=0;resizeLast=0;collapsible=1;marginBottom=0;whiteSpace=wrap;html=1;" vertex="1" parent="aIKH67vCFOzoPOkgElsJ-7">
          <mxGeometry x="13.33103448275861" y="54.55" width="290.11724137931037" height="120" as="geometry">
            <mxRectangle x="19.329999999999984" y="54.55" width="100" height="30" as="alternateBounds" />
          </mxGeometry>
        </mxCell>
        <mxCell id="aIKH67vCFOzoPOkgElsJ-3" value="Zabbix Server 10.119.117.15:10050" style="text;strokeColor=none;fillColor=none;align=left;verticalAlign=middle;spacingLeft=4;spacingRight=4;overflow=hidden;points=[[0,0.5],[1,0.5]];portConstraint=eastwest;rotatable=0;whiteSpace=wrap;html=1;" vertex="1" parent="aIKH67vCFOzoPOkgElsJ-2">
          <mxGeometry y="30" width="290.11724137931037" height="30" as="geometry" />
        </mxCell>
        <mxCell id="aIKH67vCFOzoPOkgElsJ-4" value="Zabbix Agent 10.119.117.15:10051" style="text;strokeColor=none;fillColor=none;align=left;verticalAlign=middle;spacingLeft=4;spacingRight=4;overflow=hidden;points=[[0,0.5],[1,0.5]];portConstraint=eastwest;rotatable=0;whiteSpace=wrap;html=1;" vertex="1" parent="aIKH67vCFOzoPOkgElsJ-2">
          <mxGeometry y="60" width="290.11724137931037" height="30" as="geometry" />
        </mxCell>
        <mxCell id="aIKH67vCFOzoPOkgElsJ-5" value="Zabbix Container Agent 10.119.117.15:10052" style="text;strokeColor=none;fillColor=none;align=left;verticalAlign=middle;spacingLeft=4;spacingRight=4;overflow=hidden;points=[[0,0.5],[1,0.5]];portConstraint=eastwest;rotatable=0;whiteSpace=wrap;html=1;" vertex="1" parent="aIKH67vCFOzoPOkgElsJ-2">
          <mxGeometry y="90" width="290.11724137931037" height="30" as="geometry" />
        </mxCell>
        <mxCell id="aIKH67vCFOzoPOkgElsJ-12" value="Agent scrape data from Zabbix Server" style="endArrow=classic;startArrow=classic;html=1;rounded=0;entryX=0;entryY=0.5;entryDx=0;entryDy=0;exitX=0;exitY=0.5;exitDx=0;exitDy=0;" edge="1" parent="aIKH67vCFOzoPOkgElsJ-2" source="aIKH67vCFOzoPOkgElsJ-3" target="aIKH67vCFOzoPOkgElsJ-4">
          <mxGeometry x="0.0609" y="-60" width="50" height="50" relative="1" as="geometry">
            <mxPoint x="-34.020689655172404" y="15.450000000000003" as="sourcePoint" />
            <mxPoint x="-20.227586206896543" y="135.45" as="targetPoint" />
            <Array as="points">
              <mxPoint x="-67.12413793103451" y="45.45" />
              <mxPoint x="-67.12413793103451" y="75.45" />
            </Array>
            <mxPoint as="offset" />
          </mxGeometry>
        </mxCell>
        <mxCell id="aIKH67vCFOzoPOkgElsJ-10" value="Agent scrape data from DB" style="endArrow=classic;startArrow=classic;html=1;rounded=0;exitX=1;exitY=0.75;exitDx=0;exitDy=0;entryX=0;entryY=0.5;entryDx=0;entryDy=0;" edge="1" parent="WIyWlLk6GJQsqaUBKTNV-1" source="WIyWlLk6GJQsqaUBKTNV-11" target="aIKH67vCFOzoPOkgElsJ-5">
          <mxGeometry x="0.0435" y="10" width="50" height="50" relative="1" as="geometry">
            <mxPoint x="470" y="320" as="sourcePoint" />
            <mxPoint x="490" y="200" as="targetPoint" />
            <Array as="points" />
            <mxPoint as="offset" />
          </mxGeometry>
        </mxCell>
        <mxCell id="aIKH67vCFOzoPOkgElsJ-11" value="Zabbix Server connected to DB" style="endArrow=classic;startArrow=classic;html=1;rounded=0;entryX=0.001;entryY=0.048;entryDx=0;entryDy=0;exitX=0.995;exitY=0.098;exitDx=0;exitDy=0;entryPerimeter=0;exitPerimeter=0;" edge="1" parent="WIyWlLk6GJQsqaUBKTNV-1" source="WIyWlLk6GJQsqaUBKTNV-11" target="aIKH67vCFOzoPOkgElsJ-3">
          <mxGeometry x="0.0435" y="10" width="50" height="50" relative="1" as="geometry">
            <mxPoint x="170" y="90" as="sourcePoint" />
            <mxPoint x="459" y="125" as="targetPoint" />
            <Array as="points" />
            <mxPoint as="offset" />
          </mxGeometry>
        </mxCell>
        <mxCell id="aIKH67vCFOzoPOkgElsJ-18" value="" style="group" vertex="1" connectable="0" parent="WIyWlLk6GJQsqaUBKTNV-1">
          <mxGeometry x="20" y="80" width="230" height="150" as="geometry" />
        </mxCell>
        <mxCell id="WIyWlLk6GJQsqaUBKTNV-11" value="" style="rounded=1;whiteSpace=wrap;html=1;fontSize=12;glass=0;strokeWidth=1;shadow=0;" parent="aIKH67vCFOzoPOkgElsJ-18" vertex="1">
          <mxGeometry y="34.751324723470276" width="230" height="115.24867527652972" as="geometry" />
        </mxCell>
        <mxCell id="tw2AUYOSc2pJroIqfaaH-9" value="wifi 10.119.116.133" style="text;html=1;align=center;verticalAlign=middle;whiteSpace=wrap;rounded=0;" parent="aIKH67vCFOzoPOkgElsJ-18" vertex="1">
          <mxGeometry x="17.25" width="90.08333333333333" height="38.23061269719744" as="geometry" />
        </mxCell>
        <mxCell id="aIKH67vCFOzoPOkgElsJ-14" value="MySQL VM" style="swimlane;fontStyle=0;childLayout=stackLayout;horizontal=1;startSize=30;horizontalStack=0;resizeParent=1;resizeParentMax=0;resizeLast=0;collapsible=1;marginBottom=0;whiteSpace=wrap;html=1;" vertex="1" parent="aIKH67vCFOzoPOkgElsJ-18">
          <mxGeometry x="8.625" y="38.23061269719744" width="214.1875" height="68.23061269719744" as="geometry" />
        </mxCell>
        <mxCell id="aIKH67vCFOzoPOkgElsJ-15" value="MySQL Server 10.119.116.133:3306" style="text;strokeColor=none;fillColor=none;align=left;verticalAlign=middle;spacingLeft=4;spacingRight=4;overflow=hidden;points=[[0,0.5],[1,0.5]];portConstraint=eastwest;rotatable=0;whiteSpace=wrap;html=1;" vertex="1" parent="aIKH67vCFOzoPOkgElsJ-14">
          <mxGeometry y="30" width="214.1875" height="38.23061269719744" as="geometry" />
        </mxCell>
      </root>
    </mxGraphModel>
  </diagram>
</mxfile>
